# MagicaVoxel @ Ephtracy

# group
o 

# material
mtllib once.mtl
usemtl palette

# normals
vn -1 0 0
vn 1 0 0
vn 0 0 1
vn 0 0 -1
vn 0 -1 0
vn 0 1 0

# texcoords
vt 0.0175781 0.5
vt 0.0214844 0.5
vt 0.0253906 0.5
vt 0.0292969 0.5
vt 0.0449219 0.5
vt 0.958984 0.5
vt 0.994141 0.5

# verts
v -0.6 0.4 0.6
v -0.6 0.4 0.5
v -0.6 0.5 0.6
v -0.6 0.5 0.5
v -0.6 0.8 0.6
v -0.6 0.8 0.5
v -0.6 1.1 0.6
v -0.6 1.1 0.5
v -0.6 1.2 0.7
v -0.6 1.2 0.6
v -0.6 1.2 0.5
v -0.6 1.2 0.4
v -0.6 1.3 0.8
v -0.6 1.3 0.7
v -0.6 1.3 0.6
v -0.6 1.3 0.5
v -0.6 1.3 0.4
v -0.6 1.3 0.3
v -0.6 1.4 0.8
v -0.6 1.4 0.3
v -0.5 0.2 0.7
v -0.5 0.2 0.4
v -0.5 0.4 0.6
v -0.5 0.4 0.5
v -0.5 0.5 0.6
v -0.5 0.5 0.5
v -0.5 0.6 0.7
v -0.5 0.6 0.6
v -0.5 0.6 0.5
v -0.5 0.6 0.4
v -0.5 0.8 0.7
v -0.5 0.8 0.6
v -0.5 0.8 0.5
v -0.5 0.8 0.4
v -0.5 0.9 0.8
v -0.5 0.9 0.3
v -0.5 0.9 0.2
v -0.5 1.1 0.8
v -0.5 1.1 0.7
v -0.5 1.1 0.6
v -0.5 1.1 0.5
v -0.5 1.2 0.7
v -0.5 1.2 0.6
v -0.5 1.2 0.5
v -0.5 1.2 0.4
v -0.5 1.3 0.8
v -0.5 1.3 0.7
v -0.5 1.3 0.4
v -0.5 1.3 0.3
v -0.5 1.4 0.8
v -0.5 1.4 0.3
v -0.5 1.4 0.2
v -0.5 1.5 0.8
v -0.5 1.5 0.3
v -0.4 0 0.7
v -0.4 0 0.5
v -0.4 0.1 0.7
v -0.4 0.1 0.6
v -0.4 0.2 0.6
v -0.4 0.2 0.5
v -0.4 0.8 0.7
v -0.4 0.8 0.4
v -0.4 0.9 0.7
v -0.4 0.9 0.4
v -0.4 1.5 0.8
v -0.4 1.5 0.3
v -0.4 1.6 0.8
v -0.4 1.6 0.3
v -0.3 0.4 0.6
v -0.3 0.4 0.5
v -0.3 0.5 0.6
v -0.3 0.5 0.5
v -0.2 0 0.7
v -0.2 0 0.5
v -0.2 0.1 0.7
v -0.2 0.1 0.6
v -0.2 0.2 0.6
v -0.2 0.2 0.5
v -0.2 0.3 0.6
v -0.2 0.3 0.5
v -0.0999999 0.4 0.6
v -0.0999999 0.4 0.5
v -0.0999999 0.5 0.6
v -0.0999999 0.5 0.5
v -0.0999999 0.6 0.6
v -0.0999999 0.6 0.5
v -0.0999999 0.7 0.6
v -0.0999999 0.7 0.5
v -0.4 0.4 0.6
v -0.4 0.4 0.5
v -0.4 0.5 0.6
v -0.4 0.5 0.5
v -0.3 0 0.7
v -0.3 0 0.5
v -0.3 0.1 0.7
v -0.3 0.1 0.6
v -0.3 0.2 0.6
v -0.3 0.2 0.5
v -0.3 0.3 0.6
v -0.3 0.3 0.5
v -0.2 0.4 0.6
v -0.2 0.4 0.5
v -0.2 0.5 0.6
v -0.2 0.5 0.5
v -0.2 0.7 0.6
v -0.2 0.7 0.5
v -0.0999999 0 0.7
v -0.0999999 0 0.5
v -0.0999999 0.1 0.7
v -0.0999999 0.1 0.6
v -0.0999999 0.2 0.6
v -0.0999999 0.2 0.5
v -0.0999999 0.8 0.7
v -0.0999999 0.8 0.4
v -0.0999999 0.9 0.7
v -0.0999999 0.9 0.4
v -0.0999999 1.5 0.8
v -0.0999999 1.5 0.3
v -0.0999999 1.6 0.8
v -0.0999999 1.6 0.3
v 5.96046e-08 0.2 0.7
v 5.96046e-08 0.2 0.4
v 5.96046e-08 0.4 0.6
v 5.96046e-08 0.4 0.5
v 5.96046e-08 0.5 0.6
v 5.96046e-08 0.5 0.5
v 5.96046e-08 0.6 0.7
v 5.96046e-08 0.6 0.6
v 5.96046e-08 0.6 0.5
v 5.96046e-08 0.6 0.4
v 5.96046e-08 0.8 0.7
v 5.96046e-08 0.8 0.6
v 5.96046e-08 0.8 0.5
v 5.96046e-08 0.8 0.4
v 5.96046e-08 0.9 0.8
v 5.96046e-08 0.9 0.3
v 5.96046e-08 0.9 0.2
v 5.96046e-08 1.1 0.8
v 5.96046e-08 1.1 0.7
v 5.96046e-08 1.1 0.6
v 5.96046e-08 1.1 0.5
v 5.96046e-08 1.2 0.7
v 5.96046e-08 1.2 0.6
v 5.96046e-08 1.2 0.5
v 5.96046e-08 1.2 0.4
v 5.96046e-08 1.3 0.8
v 5.96046e-08 1.3 0.7
v 5.96046e-08 1.3 0.4
v 5.96046e-08 1.3 0.3
v 5.96046e-08 1.4 0.8
v 5.96046e-08 1.4 0.3
v 5.96046e-08 1.4 0.2
v 5.96046e-08 1.5 0.8
v 5.96046e-08 1.5 0.3
v 0.1 0.4 0.6
v 0.1 0.4 0.5
v 0.1 0.5 0.6
v 0.1 0.5 0.5
v 0.1 0.8 0.6
v 0.1 0.8 0.5
v 0.1 1.1 0.6
v 0.1 1.1 0.5
v 0.1 1.2 0.7
v 0.1 1.2 0.6
v 0.1 1.2 0.5
v 0.1 1.2 0.4
v 0.1 1.3 0.8
v 0.1 1.3 0.7
v 0.1 1.3 0.6
v 0.1 1.3 0.5
v 0.1 1.3 0.4
v 0.1 1.3 0.3
v 0.1 1.4 0.8
v 0.1 1.4 0.3
v -0.6 1.3 0.8
v -0.6 1.4 0.8
v -0.5 0.9 0.8
v -0.5 1.1 0.8
v -0.5 1.3 0.8
v -0.5 1.4 0.8
v -0.5 1.5 0.8
v -0.4 1.1 0.8
v -0.4 1.2 0.8
v -0.4 1.5 0.8
v -0.4 1.6 0.8
v -0.3 1.1 0.8
v -0.3 1.2 0.8
v -0.3 1.3 0.8
v -0.2 1.1 0.8
v -0.2 1.2 0.8
v -0.2 1.3 0.8
v -0.0999999 1.1 0.8
v -0.0999999 1.2 0.8
v -0.0999999 1.5 0.8
v -0.0999999 1.6 0.8
v 5.96046e-08 0.9 0.8
v 5.96046e-08 1.1 0.8
v 5.96046e-08 1.3 0.8
v 5.96046e-08 1.4 0.8
v 5.96046e-08 1.5 0.8
v 0.1 1.3 0.8
v 0.1 1.4 0.8
v -0.6 1.2 0.7
v -0.6 1.3 0.7
v -0.5 0.2 0.7
v -0.5 0.6 0.7
v -0.5 0.8 0.7
v -0.5 1.2 0.7
v -0.5 1.3 0.7
v -0.4 0 0.7
v -0.4 0.1 0.7
v -0.4 0.5 0.7
v -0.4 0.6 0.7
v -0.4 0.8 0.7
v -0.4 0.9 0.7
v -0.3 0 0.7
v -0.3 0.1 0.7
v -0.3 0.5 0.7
v -0.3 0.7 0.7
v -0.3 0.8 0.7
v -0.2 0 0.7
v -0.2 0.1 0.7
v -0.2 0.5 0.7
v -0.2 0.7 0.7
v -0.2 0.8 0.7
v -0.0999999 0 0.7
v -0.0999999 0.1 0.7
v -0.0999999 0.5 0.7
v -0.0999999 0.6 0.7
v -0.0999999 0.8 0.7
v -0.0999999 0.9 0.7
v 5.96046e-08 0.2 0.7
v 5.96046e-08 0.6 0.7
v 5.96046e-08 0.8 0.7
v 5.96046e-08 1.2 0.7
v 5.96046e-08 1.3 0.7
v 0.1 1.2 0.7
v 0.1 1.3 0.7
v -0.6 0.4 0.6
v -0.6 0.5 0.6
v -0.6 0.8 0.6
v -0.6 1.1 0.6
v -0.6 1.2 0.6
v -0.5 0.4 0.6
v -0.5 0.5 0.6
v -0.5 0.6 0.6
v -0.5 0.8 0.6
v -0.5 1.1 0.6
v -0.5 1.2 0.6
v -0.4 0.1 0.6
v -0.4 0.2 0.6
v -0.3 0.1 0.6
v -0.3 0.2 0.6
v -0.2 0.1 0.6
v -0.2 0.2 0.6
v -0.0999999 0.1 0.6
v -0.0999999 0.2 0.6
v 5.96046e-08 0.4 0.6
v 5.96046e-08 0.5 0.6
v 5.96046e-08 0.6 0.6
v 5.96046e-08 0.8 0.6
v 5.96046e-08 1.1 0.6
v 5.96046e-08 1.2 0.6
v 0.1 0.4 0.6
v 0.1 0.5 0.6
v 0.1 0.8 0.6
v 0.1 1.1 0.6
v 0.1 1.2 0.6
v -0.4 0.4 0.5
v -0.4 0.5 0.5
v -0.3 0.2 0.5
v -0.3 0.3 0.5
v -0.3 0.4 0.5
v -0.3 0.5 0.5
v -0.2 0.2 0.5
v -0.2 0.3 0.5
v -0.2 0.4 0.5
v -0.2 0.5 0.5
v -0.2 0.7 0.5
v -0.0999999 0.4 0.5
v -0.0999999 0.5 0.5
v -0.0999999 0.6 0.5
v -0.0999999 0.7 0.5
v -0.4 0.4 0.6
v -0.4 0.5 0.6
v -0.3 0.2 0.6
v -0.3 0.3 0.6
v -0.3 0.4 0.6
v -0.3 0.5 0.6
v -0.2 0.2 0.6
v -0.2 0.3 0.6
v -0.2 0.4 0.6
v -0.2 0.5 0.6
v -0.2 0.7 0.6
v -0.0999999 0.4 0.6
v -0.0999999 0.5 0.6
v -0.0999999 0.6 0.6
v -0.0999999 0.7 0.6
v -0.6 0.4 0.5
v -0.6 0.5 0.5
v -0.6 0.8 0.5
v -0.6 1.1 0.5
v -0.6 1.2 0.5
v -0.5 0.4 0.5
v -0.5 0.5 0.5
v -0.5 0.6 0.5
v -0.5 0.8 0.5
v -0.5 1.1 0.5
v -0.5 1.2 0.5
v -0.4 0 0.5
v -0.4 0.2 0.5
v -0.3 0 0.5
v -0.3 0.2 0.5
v -0.2 0 0.5
v -0.2 0.2 0.5
v -0.0999999 0 0.5
v -0.0999999 0.2 0.5
v 5.96046e-08 0.4 0.5
v 5.96046e-08 0.5 0.5
v 5.96046e-08 0.6 0.5
v 5.96046e-08 0.8 0.5
v 5.96046e-08 1.1 0.5
v 5.96046e-08 1.2 0.5
v 0.1 0.4 0.5
v 0.1 0.5 0.5
v 0.1 0.8 0.5
v 0.1 1.1 0.5
v 0.1 1.2 0.5
v -0.6 1.2 0.4
v -0.6 1.3 0.4
v -0.5 0.2 0.4
v -0.5 0.6 0.4
v -0.5 0.8 0.4
v -0.5 1.2 0.4
v -0.5 1.3 0.4
v -0.4 0.5 0.4
v -0.4 0.6 0.4
v -0.4 0.8 0.4
v -0.4 0.9 0.4
v -0.0999999 0.5 0.4
v -0.0999999 0.6 0.4
v -0.0999999 0.8 0.4
v -0.0999999 0.9 0.4
v 5.96046e-08 0.2 0.4
v 5.96046e-08 0.6 0.4
v 5.96046e-08 0.8 0.4
v 5.96046e-08 1.2 0.4
v 5.96046e-08 1.3 0.4
v 0.1 1.2 0.4
v 0.1 1.3 0.4
v -0.6 1.3 0.3
v -0.6 1.4 0.3
v -0.5 1.3 0.3
v -0.5 1.4 0.3
v -0.5 1.5 0.3
v -0.4 1.5 0.3
v -0.4 1.6 0.3
v -0.0999999 1.5 0.3
v -0.0999999 1.6 0.3
v 5.96046e-08 1.3 0.3
v 5.96046e-08 1.4 0.3
v 5.96046e-08 1.5 0.3
v 0.1 1.3 0.3
v 0.1 1.4 0.3
v -0.5 0.9 0.2
v -0.5 1.4 0.2
v 5.96046e-08 0.9 0.2
v 5.96046e-08 1.4 0.2
v -0.4 0 0.7
v -0.3 0 0.7
v -0.2 0 0.7
v -0.0999999 0 0.7
v -0.4 0 0.5
v -0.3 0 0.5
v -0.2 0 0.5
v -0.0999999 0 0.5
v -0.5 0.2 0.7
v 5.96046e-08 0.2 0.7
v -0.4 0.2 0.6
v -0.3 0.2 0.6
v -0.2 0.2 0.6
v -0.0999999 0.2 0.6
v -0.4 0.2 0.5
v -0.3 0.2 0.5
v -0.2 0.2 0.5
v -0.0999999 0.2 0.5
v -0.5 0.2 0.4
v 5.96046e-08 0.2 0.4
v -0.3 0.3 0.6
v -0.2 0.3 0.6
v -0.3 0.3 0.5
v -0.2 0.3 0.5
v -0.6 0.4 0.6
v -0.5 0.4 0.6
v 5.96046e-08 0.4 0.6
v 0.1 0.4 0.6
v -0.6 0.4 0.5
v -0.5 0.4 0.5
v 5.96046e-08 0.4 0.5
v 0.1 0.4 0.5
v -0.4 0.5 0.6
v -0.3 0.5 0.6
v -0.4 0.5 0.5
v -0.3 0.5 0.5
v -0.2 0.7 0.6
v -0.0999999 0.7 0.6
v -0.2 0.7 0.5
v -0.0999999 0.7 0.5
v -0.5 0.9 0.8
v 5.96046e-08 0.9 0.8
v -0.4 0.9 0.7
v -0.0999999 0.9 0.7
v -0.4 0.9 0.4
v -0.0999999 0.9 0.4
v -0.5 0.9 0.3
v 5.96046e-08 0.9 0.3
v -0.5 0.9 0.2
v 5.96046e-08 0.9 0.2
v -0.6 1.1 0.6
v -0.5 1.1 0.6
v 5.96046e-08 1.1 0.6
v 0.1 1.1 0.6
v -0.6 1.1 0.5
v -0.5 1.1 0.5
v 5.96046e-08 1.1 0.5
v 0.1 1.1 0.5
v -0.6 1.2 0.7
v -0.5 1.2 0.7
v 5.96046e-08 1.2 0.7
v 0.1 1.2 0.7
v -0.6 1.2 0.6
v -0.5 1.2 0.6
v 5.96046e-08 1.2 0.6
v 0.1 1.2 0.6
v -0.6 1.2 0.5
v -0.5 1.2 0.5
v 5.96046e-08 1.2 0.5
v 0.1 1.2 0.5
v -0.6 1.2 0.4
v -0.5 1.2 0.4
v 5.96046e-08 1.2 0.4
v 0.1 1.2 0.4
v -0.6 1.3 0.8
v -0.5 1.3 0.8
v 5.96046e-08 1.3 0.8
v 0.1 1.3 0.8
v -0.6 1.3 0.7
v -0.5 1.3 0.7
v 5.96046e-08 1.3 0.7
v 0.1 1.3 0.7
v -0.6 1.3 0.4
v -0.5 1.3 0.4
v 5.96046e-08 1.3 0.4
v 0.1 1.3 0.4
v -0.6 1.3 0.3
v -0.5 1.3 0.3
v 5.96046e-08 1.3 0.3
v 0.1 1.3 0.3
v -0.4 0.1 0.7
v -0.3 0.1 0.7
v -0.2 0.1 0.7
v -0.0999999 0.1 0.7
v -0.4 0.1 0.6
v -0.3 0.1 0.6
v -0.2 0.1 0.6
v -0.0999999 0.1 0.6
v -0.4 0.4 0.6
v -0.3 0.4 0.6
v -0.2 0.4 0.6
v -0.0999999 0.4 0.6
v -0.4 0.4 0.5
v -0.3 0.4 0.5
v -0.2 0.4 0.5
v -0.0999999 0.4 0.5
v -0.5 0.8 0.7
v -0.4 0.8 0.7
v -0.0999999 0.8 0.7
v 5.96046e-08 0.8 0.7
v -0.6 0.8 0.6
v -0.5 0.8 0.6
v 5.96046e-08 0.8 0.6
v 0.1 0.8 0.6
v -0.6 0.8 0.5
v -0.5 0.8 0.5
v 5.96046e-08 0.8 0.5
v 0.1 0.8 0.5
v -0.5 0.8 0.4
v -0.4 0.8 0.4
v -0.0999999 0.8 0.4
v 5.96046e-08 0.8 0.4
v -0.6 1.4 0.8
v -0.5 1.4 0.8
v 5.96046e-08 1.4 0.8
v 0.1 1.4 0.8
v -0.6 1.4 0.3
v -0.5 1.4 0.3
v 5.96046e-08 1.4 0.3
v 0.1 1.4 0.3
v -0.5 1.4 0.2
v 5.96046e-08 1.4 0.2
v -0.5 1.5 0.8
v -0.4 1.5 0.8
v -0.0999999 1.5 0.8
v 5.96046e-08 1.5 0.8
v -0.5 1.5 0.3
v -0.4 1.5 0.3
v -0.0999999 1.5 0.3
v 5.96046e-08 1.5 0.3
v -0.4 1.6 0.8
v -0.0999999 1.6 0.8
v -0.4 1.6 0.3
v -0.0999999 1.6 0.3

# faces
f 3/3/1 2/3/1 1/3/1
f 4/3/1 2/3/1 3/3/1
f 5/2/1 4/2/1 3/2/1
f 6/2/1 4/2/1 5/2/1
f 10/1/1 8/1/1 7/1/1
f 11/1/1 8/1/1 10/1/1
f 14/1/1 10/1/1 9/1/1
f 15/3/1 11/3/1 10/3/1
f 15/1/1 10/1/1 14/1/1
f 16/1/1 12/1/1 11/1/1
f 16/3/1 11/3/1 15/3/1
f 17/1/1 12/1/1 16/1/1
f 19/1/1 14/1/1 13/1/1
f 19/1/1 18/1/1 17/1/1
f 19/1/1 17/1/1 16/1/1
f 19/1/1 16/1/1 15/1/1
f 19/1/1 15/1/1 14/1/1
f 20/1/1 18/1/1 19/1/1
f 23/4/1 22/4/1 21/4/1
f 24/4/1 22/4/1 23/4/1
f 25/4/1 23/4/1 21/4/1
f 26/4/1 22/4/1 24/4/1
f 27/4/1 25/4/1 21/4/1
f 28/4/1 25/4/1 27/4/1
f 29/4/1 22/4/1 26/4/1
f 30/4/1 22/4/1 29/4/1
f 31/2/1 28/2/1 27/2/1
f 32/2/1 28/2/1 31/2/1
f 33/2/1 30/2/1 29/2/1
f 34/2/1 30/2/1 33/2/1
f 38/3/1 36/3/1 35/3/1
f 39/3/1 36/3/1 38/3/1
f 40/3/1 36/3/1 39/3/1
f 41/3/1 36/3/1 40/3/1
f 42/6/1 39/6/1 38/6/1
f 42/3/1 40/3/1 39/3/1
f 43/3/1 40/3/1 42/3/1
f 44/3/1 36/3/1 41/3/1
f 45/3/1 36/3/1 44/3/1
f 46/6/1 42/6/1 38/6/1
f 47/6/1 42/6/1 46/6/1
f 48/3/1 36/3/1 45/3/1
f 49/1/1 37/1/1 36/1/1
f 49/3/1 36/3/1 48/3/1
f 51/1/1 37/1/1 49/1/1
f 52/1/1 37/1/1 51/1/1
f 53/1/1 51/1/1 50/1/1
f 54/1/1 51/1/1 53/1/1
f 57/3/1 56/3/1 55/3/1
f 58/3/1 56/3/1 57/3/1
f 59/3/1 56/3/1 58/3/1
f 60/3/1 56/3/1 59/3/1
f 63/6/1 62/6/1 61/6/1
f 64/6/1 62/6/1 63/6/1
f 67/1/1 66/1/1 65/1/1
f 68/1/1 66/1/1 67/1/1
f 71/5/1 70/5/1 69/5/1
f 72/5/1 70/5/1 71/5/1
f 75/3/1 74/3/1 73/3/1
f 76/3/1 74/3/1 75/3/1
f 77/3/1 74/3/1 76/3/1
f 78/3/1 74/3/1 77/3/1
f 79/3/1 78/3/1 77/3/1
f 80/3/1 78/3/1 79/3/1
f 83/4/1 82/4/1 81/4/1
f 84/4/1 82/4/1 83/4/1
f 85/4/1 84/4/1 83/4/1
f 86/4/1 84/4/1 85/4/1
f 87/2/1 86/2/1 85/2/1
f 88/2/1 86/2/1 87/2/1
f 89/4/2 90/4/2 91/4/2
f 91/4/2 90/4/2 92/4/2
f 93/3/2 94/3/2 95/3/2
f 95/3/2 94/3/2 96/3/2
f 96/3/2 94/3/2 97/3/2
f 97/3/2 94/3/2 98/3/2
f 97/3/2 98/3/2 99/3/2
f 99/3/2 98/3/2 100/3/2
f 101/5/2 102/5/2 103/5/2
f 103/5/2 102/5/2 104/5/2
f 103/5/2 104/5/2 105/5/2
f 105/5/2 104/5/2 106/5/2
f 107/3/2 108/3/2 109/3/2
f 109/3/2 108/3/2 110/3/2
f 110/3/2 108/3/2 111/3/2
f 111/3/2 108/3/2 112/3/2
f 113/6/2 114/6/2 115/6/2
f 115/6/2 114/6/2 116/6/2
f 117/1/2 118/1/2 119/1/2
f 119/1/2 118/1/2 120/1/2
f 121/4/2 122/4/2 123/4/2
f 123/4/2 122/4/2 124/4/2
f 121/4/2 123/4/2 125/4/2
f 124/4/2 122/4/2 126/4/2
f 121/4/2 125/4/2 127/4/2
f 127/4/2 125/4/2 128/4/2
f 126/4/2 122/4/2 129/4/2
f 129/4/2 122/4/2 130/4/2
f 127/2/2 128/2/2 131/2/2
f 131/2/2 128/2/2 132/2/2
f 129/2/2 130/2/2 133/2/2
f 133/2/2 130/2/2 134/2/2
f 135/3/2 136/3/2 138/3/2
f 138/3/2 136/3/2 139/3/2
f 139/3/2 136/3/2 140/3/2
f 140/3/2 136/3/2 141/3/2
f 138/6/2 139/6/2 142/6/2
f 139/3/2 140/3/2 142/3/2
f 142/3/2 140/3/2 143/3/2
f 141/3/2 136/3/2 144/3/2
f 144/3/2 136/3/2 145/3/2
f 138/6/2 142/6/2 146/6/2
f 146/6/2 142/6/2 147/6/2
f 145/3/2 136/3/2 148/3/2
f 136/1/2 137/1/2 149/1/2
f 148/3/2 136/3/2 149/3/2
f 149/1/2 137/1/2 151/1/2
f 151/1/2 137/1/2 152/1/2
f 150/1/2 151/1/2 153/1/2
f 153/1/2 151/1/2 154/1/2
f 155/3/2 156/3/2 157/3/2
f 157/3/2 156/3/2 158/3/2
f 157/2/2 158/2/2 159/2/2
f 159/2/2 158/2/2 160/2/2
f 161/1/2 162/1/2 164/1/2
f 164/1/2 162/1/2 165/1/2
f 163/1/2 164/1/2 168/1/2
f 164/3/2 165/3/2 169/3/2
f 168/1/2 164/1/2 169/1/2
f 165/1/2 166/1/2 170/1/2
f 169/3/2 165/3/2 170/3/2
f 170/1/2 166/1/2 171/1/2
f 167/1/2 168/1/2 173/1/2
f 171/1/2 172/1/2 173/1/2
f 170/1/2 171/1/2 173/1/2
f 169/1/2 170/1/2 173/1/2
f 168/1/2 169/1/2 173/1/2
f 173/1/2 172/1/2 174/1/2
f 179/1/3 176/1/3 175/1/3
f 180/1/3 176/1/3 179/1/3
f 182/3/3 178/3/3 177/3/3
f 182/6/3 179/6/3 178/6/3
f 183/6/3 179/6/3 182/6/3
f 184/1/3 181/1/3 180/1/3
f 186/3/3 182/3/3 177/3/3
f 186/7/3 183/7/3 182/7/3
f 187/6/3 179/6/3 183/6/3
f 187/7/3 183/7/3 186/7/3
f 188/3/3 180/3/3 179/3/3
f 188/6/3 179/6/3 187/6/3
f 189/3/3 186/3/3 177/3/3
f 189/3/3 187/3/3 186/3/3
f 189/3/3 188/3/3 187/3/3
f 190/3/3 188/3/3 189/3/3
f 191/3/3 180/3/3 188/3/3
f 191/3/3 188/3/3 190/3/3
f 192/7/3 190/7/3 189/7/3
f 192/3/3 189/3/3 177/3/3
f 193/6/3 191/6/3 190/6/3
f 193/7/3 190/7/3 192/7/3
f 194/1/3 184/1/3 180/1/3
f 194/1/3 185/1/3 184/1/3
f 195/1/3 185/1/3 194/1/3
f 196/3/3 192/3/3 177/3/3
f 197/6/3 193/6/3 192/6/3
f 197/3/3 192/3/3 196/3/3
f 198/3/3 180/3/3 191/3/3
f 198/6/3 193/6/3 197/6/3
f 198/6/3 191/6/3 193/6/3
f 199/1/3 194/1/3 180/1/3
f 199/3/3 180/3/3 198/3/3
f 200/1/3 194/1/3 199/1/3
f 201/1/3 199/1/3 198/1/3
f 202/1/3 199/1/3 201/1/3
f 208/1/3 204/1/3 203/1/3
f 209/1/3 204/1/3 208/1/3
f 212/4/3 206/4/3 205/4/3
f 213/2/3 207/2/3 206/2/3
f 213/4/3 206/4/3 212/4/3
f 214/2/3 207/2/3 213/2/3
f 216/3/3 211/3/3 210/3/3
f 217/3/3 211/3/3 216/3/3
f 218/4/3 212/4/3 205/4/3
f 218/2/3 213/2/3 212/2/3
f 218/2/3 214/2/3 213/2/3
f 219/2/3 214/2/3 218/2/3
f 220/6/3 215/6/3 214/6/3
f 220/2/3 214/2/3 219/2/3
f 223/4/3 219/4/3 218/4/3
f 223/4/3 218/4/3 205/4/3
f 224/6/3 220/6/3 219/6/3
f 224/4/3 219/4/3 223/4/3
f 225/6/3 215/6/3 220/6/3
f 225/6/3 220/6/3 224/6/3
f 226/3/3 222/3/3 221/3/3
f 227/3/3 222/3/3 226/3/3
f 228/2/3 224/2/3 223/2/3
f 228/4/3 223/4/3 205/4/3
f 228/2/3 225/2/3 224/2/3
f 229/2/3 225/2/3 228/2/3
f 230/6/3 215/6/3 225/6/3
f 230/2/3 225/2/3 229/2/3
f 231/6/3 215/6/3 230/6/3
f 232/4/3 229/4/3 228/4/3
f 232/4/3 228/4/3 205/4/3
f 233/2/3 230/2/3 229/2/3
f 233/4/3 229/4/3 232/4/3
f 234/2/3 230/2/3 233/2/3
f 237/1/3 236/1/3 235/1/3
f 238/1/3 236/1/3 237/1/3
f 244/3/3 240/3/3 239/3/3
f 245/2/3 241/2/3 240/2/3
f 245/3/3 240/3/3 244/3/3
f 246/2/3 241/2/3 245/2/3
f 247/2/3 241/2/3 246/2/3
f 248/1/3 243/1/3 242/1/3
f 249/1/3 243/1/3 248/1/3
f 252/3/3 251/3/3 250/3/3
f 253/3/3 251/3/3 252/3/3
f 256/3/3 255/3/3 254/3/3
f 257/3/3 255/3/3 256/3/3
f 264/3/3 259/3/3 258/3/3
f 265/2/3 260/2/3 259/2/3
f 265/3/3 259/3/3 264/3/3
f 265/2/3 261/2/3 260/2/3
f 266/2/3 261/2/3 265/2/3
f 267/1/3 263/1/3 262/1/3
f 268/1/3 263/1/3 267/1/3
f 273/4/3 270/4/3 269/4/3
f 274/4/3 270/4/3 273/4/3
f 275/4/3 272/4/3 271/4/3
f 276/4/3 272/4/3 275/4/3
f 280/4/3 278/4/3 277/4/3
f 281/2/3 279/2/3 278/2/3
f 281/4/3 278/4/3 280/4/3
f 282/2/3 279/2/3 281/2/3
f 283/2/3 279/2/3 282/2/3
f 284/4/4 285/4/4 288/4/4
f 288/4/4 285/4/4 289/4/4
f 286/4/4 287/4/4 290/4/4
f 290/4/4 287/4/4 291/4/4
f 292/4/4 293/4/4 295/4/4
f 293/2/4 294/2/4 296/2/4
f 295/4/4 293/4/4 296/4/4
f 296/2/4 294/2/4 297/2/4
f 297/2/4 294/2/4 298/2/4
f 299/3/4 300/3/4 304/3/4
f 300/2/4 301/2/4 305/2/4
f 304/3/4 300/3/4 305/3/4
f 305/2/4 301/2/4 306/2/4
f 306/2/4 301/2/4 307/2/4
f 302/1/4 303/1/4 308/1/4
f 308/1/4 303/1/4 309/1/4
f 310/3/4 311/3/4 312/3/4
f 312/3/4 311/3/4 313/3/4
f 314/3/4 315/3/4 316/3/4
f 316/3/4 315/3/4 317/3/4
f 318/3/4 319/3/4 324/3/4
f 319/2/4 320/2/4 325/2/4
f 324/3/4 319/3/4 325/3/4
f 320/2/4 321/2/4 325/2/4
f 325/2/4 321/2/4 326/2/4
f 322/1/4 323/1/4 327/1/4
f 327/1/4 323/1/4 328/1/4
f 329/1/4 330/1/4 334/1/4
f 334/1/4 330/1/4 335/1/4
f 331/4/4 332/4/4 336/4/4
f 332/2/4 333/2/4 337/2/4
f 336/4/4 332/4/4 337/4/4
f 337/2/4 333/2/4 338/2/4
f 331/4/4 336/4/4 340/4/4
f 336/2/4 337/2/4 340/2/4
f 337/2/4 338/2/4 340/2/4
f 340/2/4 338/2/4 341/2/4
f 338/6/4 339/6/4 342/6/4
f 341/2/4 338/2/4 342/2/4
f 342/6/4 339/6/4 343/6/4
f 340/4/4 341/4/4 344/4/4
f 331/4/4 340/4/4 344/4/4
f 341/2/4 342/2/4 345/2/4
f 344/4/4 341/4/4 345/4/4
f 345/2/4 342/2/4 346/2/4
f 347/1/4 348/1/4 349/1/4
f 349/1/4 348/1/4 350/1/4
f 351/1/4 352/1/4 353/1/4
f 353/1/4 352/1/4 354/1/4
f 354/1/4 355/1/4 356/1/4
f 354/1/4 356/1/4 358/1/4
f 356/1/4 357/1/4 358/1/4
f 358/1/4 357/1/4 359/1/4
f 354/1/4 358/1/4 361/1/4
f 361/1/4 358/1/4 362/1/4
f 360/1/4 361/1/4 363/1/4
f 363/1/4 361/1/4 364/1/4
f 365/1/4 366/1/4 367/1/4
f 367/1/4 366/1/4 368/1/4
f 373/3/5 370/3/5 369/3/5
f 374/3/5 370/3/5 373/3/5
f 375/3/5 372/3/5 371/3/5
f 376/3/5 372/3/5 375/3/5
f 379/4/5 378/4/5 377/4/5
f 380/4/5 378/4/5 379/4/5
f 381/4/5 378/4/5 380/4/5
f 382/4/5 378/4/5 381/4/5
f 383/4/5 379/4/5 377/4/5
f 386/4/5 378/4/5 382/4/5
f 387/4/5 385/4/5 384/4/5
f 387/4/5 386/4/5 385/4/5
f 387/4/5 383/4/5 377/4/5
f 387/4/5 384/4/5 383/4/5
f 388/4/5 378/4/5 386/4/5
f 388/4/5 386/4/5 387/4/5
f 391/5/5 390/5/5 389/5/5
f 392/5/5 390/5/5 391/5/5
f 397/3/5 394/3/5 393/3/5
f 398/3/5 394/3/5 397/3/5
f 399/3/5 396/3/5 395/3/5
f 400/3/5 396/3/5 399/3/5
f 403/2/5 402/2/5 401/2/5
f 404/2/5 402/2/5 403/2/5
f 407/2/5 406/2/5 405/2/5
f 408/2/5 406/2/5 407/2/5
f 411/3/5 410/3/5 409/3/5
f 412/3/5 410/3/5 411/3/5
f 413/3/5 411/3/5 409/3/5
f 414/3/5 410/3/5 412/3/5
f 415/3/5 413/3/5 409/3/5
f 415/3/5 414/3/5 413/3/5
f 416/3/5 410/3/5 414/3/5
f 416/3/5 414/3/5 415/3/5
f 417/1/5 416/1/5 415/1/5
f 418/1/5 416/1/5 417/1/5
f 423/1/5 420/1/5 419/1/5
f 424/1/5 420/1/5 423/1/5
f 425/1/5 422/1/5 421/1/5
f 426/1/5 422/1/5 425/1/5
f 431/1/5 428/1/5 427/1/5
f 432/1/5 428/1/5 431/1/5
f 433/1/5 430/1/5 429/1/5
f 434/1/5 430/1/5 433/1/5
f 439/1/5 436/1/5 435/1/5
f 440/1/5 436/1/5 439/1/5
f 441/1/5 438/1/5 437/1/5
f 442/1/5 438/1/5 441/1/5
f 447/1/5 444/1/5 443/1/5
f 448/1/5 444/1/5 447/1/5
f 449/1/5 446/1/5 445/1/5
f 450/1/5 446/1/5 449/1/5
f 455/1/5 452/1/5 451/1/5
f 456/1/5 452/1/5 455/1/5
f 457/1/5 454/1/5 453/1/5
f 458/1/5 454/1/5 457/1/5
f 459/3/6 460/3/6 463/3/6
f 463/3/6 460/3/6 464/3/6
f 461/3/6 462/3/6 465/3/6
f 465/3/6 462/3/6 466/3/6
f 467/5/6 468/5/6 471/5/6
f 471/5/6 468/5/6 472/5/6
f 469/5/6 470/5/6 473/5/6
f 473/5/6 470/5/6 474/5/6
f 475/2/6 476/2/6 480/2/6
f 477/2/6 478/2/6 481/2/6
f 479/2/6 480/2/6 483/2/6
f 480/2/6 476/2/6 484/2/6
f 483/2/6 480/2/6 484/2/6
f 481/2/6 482/2/6 485/2/6
f 477/2/6 481/2/6 485/2/6
f 485/2/6 482/2/6 486/2/6
f 484/2/6 476/2/6 487/2/6
f 487/2/6 476/2/6 488/2/6
f 477/2/6 485/2/6 489/2/6
f 489/2/6 485/2/6 490/2/6
f 491/1/6 492/1/6 495/1/6
f 495/1/6 492/1/6 496/1/6
f 493/1/6 494/1/6 497/1/6
f 497/1/6 494/1/6 498/1/6
f 496/1/6 497/1/6 499/1/6
f 499/1/6 497/1/6 500/1/6
f 501/1/6 502/1/6 505/1/6
f 505/1/6 502/1/6 506/1/6
f 503/1/6 504/1/6 507/1/6
f 507/1/6 504/1/6 508/1/6
f 509/1/6 510/1/6 511/1/6
f 511/1/6 510/1/6 512/1/6
